<svg xmlns="http://www.w3.org/2000/svg" width="224" height="82" fill="none">
  <path fill="#fa7275" d="M112.71 53.735c-1.746 0-3.317-.3-4.714-.898-1.397-.624-2.494-1.497-3.293-2.62-.798-1.122-1.197-2.432-1.197-3.928h4.565c.1 1.122.536 2.045 1.309 2.769.799.723 1.909 1.085 3.33 1.085 1.472 0 2.62-.35 3.443-1.048.823-.723 1.234-1.646 1.234-2.769 0-.873-.261-1.584-.785-2.133-.499-.548-1.135-.972-1.908-1.272-.749-.299-1.796-.623-3.143-.972-1.697-.45-3.081-.898-4.154-1.347-1.047-.474-1.945-1.198-2.694-2.17-.748-.974-1.122-2.27-1.122-3.892 0-1.497.374-2.806 1.122-3.929.749-1.122 1.796-1.983 3.143-2.581 1.347-.599 2.906-.898 4.677-.898 2.52 0 4.578.636 6.174 1.908 1.621 1.247 2.519 2.968 2.694 5.163h-4.714c-.075-.948-.524-1.758-1.347-2.432-.824-.673-1.909-1.01-3.256-1.01-1.222 0-2.22.312-2.993.936-.773.623-1.16 1.521-1.16 2.693 0 .799.237 1.46.711 1.983.499.5 1.123.899 1.871 1.198.748.3 1.771.623 3.068.973 1.721.474 3.118.948 4.191 1.421 1.097.474 2.02 1.21 2.768 2.208.774.973 1.16 2.282 1.16 3.929 0 1.322-.361 2.569-1.085 3.741-.698 1.173-1.733 2.12-3.105 2.844-1.347.698-2.944 1.048-4.79 1.048Zm18.99-17.399v11.412c0 .773.174 1.335.524 1.684.374.324.997.486 1.87.486h2.619v3.555h-3.367c-1.921 0-3.392-.45-4.415-1.347-1.023-.898-1.534-2.357-1.534-4.378V36.336h-2.432v-3.48h2.432V27.73h4.303v5.126h5.013v3.48H131.7Zm17.887 17.473c-1.945 0-3.704-.436-5.275-1.31a9.707 9.707 0 0 1-3.705-3.74c-.898-1.622-1.347-3.493-1.347-5.613 0-2.096.462-3.954 1.385-5.575.923-1.622 2.182-2.869 3.779-3.742 1.596-.873 3.38-1.31 5.35-1.31 1.971 0 3.754.437 5.351 1.31 1.596.873 2.856 2.12 3.779 3.742.923 1.621 1.384 3.48 1.384 5.575s-.474 3.953-1.422 5.575a9.931 9.931 0 0 1-3.891 3.779c-1.621.873-3.417 1.31-5.388 1.31Zm0-3.704a6.238 6.238 0 0 0 3.068-.785c.973-.524 1.759-1.31 2.358-2.358.598-1.047.898-2.32.898-3.816 0-1.497-.287-2.757-.861-3.78-.574-1.047-1.334-1.833-2.282-2.356a6.243 6.243 0 0 0-3.068-.786 6.244 6.244 0 0 0-3.069.786c-.923.523-1.658 1.31-2.207 2.357-.549 1.023-.823 2.282-.823 3.779 0 2.22.561 3.941 1.683 5.163 1.148 1.198 2.582 1.796 4.303 1.796ZM168.77 35.85c.624-1.048 1.447-1.859 2.47-2.432 1.047-.6 2.282-.898 3.704-.898v4.415h-1.085c-1.671 0-2.943.424-3.816 1.272-.849.848-1.273 2.32-1.273 4.415v10.85h-4.265V32.857h4.265v2.994Zm28.99 6.81c0 .773-.05 1.471-.15 2.095h-15.752c.125 1.646.736 2.968 1.834 3.966 1.097.998 2.444 1.497 4.04 1.497 2.295 0 3.917-.96 4.865-2.882h4.602c-.624 1.896-1.759 3.455-3.405 4.677-1.621 1.198-3.642 1.796-6.062 1.796-1.97 0-3.741-.436-5.313-1.31-1.546-.897-2.768-2.144-3.666-3.74-.873-1.622-1.31-3.493-1.31-5.613 0-2.12.424-3.979 1.272-5.575.873-1.622 2.083-2.869 3.63-3.742 1.571-.873 3.367-1.31 5.387-1.31 1.946 0 3.68.425 5.201 1.273a8.955 8.955 0 0 1 3.555 3.592c.848 1.521 1.272 3.28 1.272 5.275Zm-4.453-1.348c-.024-1.571-.586-2.83-1.683-3.779-1.098-.947-2.457-1.421-4.079-1.421-1.471 0-2.731.474-3.779 1.421-1.047.923-1.671 2.183-1.87 3.78h11.411Zm12.916-13.844v26.005h-4.265V27.468h4.265Zm10.577 8.868v11.412c0 .773.174 1.335.523 1.684.375.324.998.486 1.871.486h2.619v3.555h-3.367c-1.921 0-3.393-.45-4.415-1.347-1.023-.898-1.534-2.357-1.534-4.378V36.336h-2.432v-3.48h2.432V27.73h4.303v5.126h5.013v3.48H216.8Z"/>
  <rect width="74.832" height="74.832" fill="#fa7275" opacity=".2" rx="37.416"/>
  <rect width="49.888" height="49.888" x="32.738" y="31.18" fill="#fa7275" rx="24.944"/>
</svg>